<svg width="36" height="36" viewBox="0 0 36 36" fill="none" xmlns="http://www.w3.org/2000/svg">
<path d="M12.1333 10.2151C12.1333 10.2151 12.7093 11.7618 13.808 12.9763L18 12.2912L22.192 12.9763C23.2907 11.7618 23.8667 10.2151 23.8667 10.2151C23.1947 10.2151 20.6667 10.7341 20.6667 10.7341C21.0507 9.62344 20.6667 8.13907 20.6667 8.13907C19.7814 8.73074 18 10.2151 18 10.2151C18 10.2151 16.2187 8.73074 15.3333 8.13907C15.3333 8.13907 14.9493 9.62344 15.3333 10.7341C15.3333 10.7341 12.8053 10.2151 12.1333 10.2151Z" fill="#DCDF39" stroke="#3B3A3C" stroke-linecap="round" stroke-linejoin="round"></path>
<path d="M18 12.2912C22.224 12.2912 26 13.9105 26 18.5193C26 23.1281 22.8213 29.9375 18 29.9375C13.1787 29.9375 10 23.1281 10 18.5193C10 13.9105 13.776 12.2912 18 12.2912Z" fill="#FF6883" stroke="#3B3A3C" stroke-linecap="round" stroke-linejoin="round"></path>
<path d="M18 10.2151C18 10.2151 18.1387 7.6097 16.4 6.06305" stroke="#3B3A3C" stroke-linecap="round" stroke-linejoin="round"></path>
<path d="M20.1333 18.156V18.8826" stroke="#3B3A3C" stroke-linecap="round" stroke-linejoin="round"></path>
<path d="M15.8667 18.156V18.8826" stroke="#3B3A3C" stroke-linecap="round" stroke-linejoin="round"></path>
<path d="M20.6667 24.9031V25.6297" stroke="#3B3A3C" stroke-linecap="round" stroke-linejoin="round"></path>
<path d="M15.3333 24.9031V25.6297" stroke="#3B3A3C" stroke-linecap="round" stroke-linejoin="round"></path>
<path d="M23.8667 18.675V19.4016" stroke="#3B3A3C" stroke-linecap="round" stroke-linejoin="round"></path>
<path d="M12.1333 18.675V19.4016" stroke="#3B3A3C" stroke-linecap="round" stroke-linejoin="round"></path>
<path d="M18 21.7891V22.5157" stroke="#3B3A3C" stroke-linecap="round" stroke-linejoin="round"></path>
<path d="M18 26.9792V27.7058" stroke="#3B3A3C" stroke-linecap="round" stroke-linejoin="round"></path>
<path d="M18 14.5229V15.2496" stroke="#3B3A3C" stroke-linecap="round" stroke-linejoin="round"></path>
<path d="M22.2667 15.5609V16.2876" stroke="#3B3A3C" stroke-linecap="round" stroke-linejoin="round"></path>
<path d="M13.7333 15.5609V16.2876" stroke="#3B3A3C" stroke-linecap="round" stroke-linejoin="round"></path>
<path d="M22.2667 21.7891V22.5157" stroke="#3B3A3C" stroke-linecap="round" stroke-linejoin="round"></path>
<path d="M13.7333 21.7891V22.5157" stroke="#3B3A3C" stroke-linecap="round" stroke-linejoin="round"></path>
</svg>